<svg width="552" height="237" viewBox="0 0 552 237" fill="none" xmlns="http://www.w3.org/2000/svg">
<path d="M46.8483 6.5537H0V8.63031H13.832C18.053 8.63031 21.4183 9.71624 23.928 11.8881C26.4377 14.06 27.6926 17.4225 27.6926 21.9758C27.6926 26.9483 26.4377 30.4633 23.928 32.5208C21.4183 34.5784 17.8343 35.6072 13.1761 35.6072H4.24943V50.7531H0V52.5248H13.832C18.053 52.5248 21.4183 53.6108 23.928 55.7826C26.4377 57.9545 27.6926 61.3171 27.6926 65.8704C27.6926 70.8428 26.4377 74.3578 23.928 76.4154C21.4183 78.4729 17.8343 79.5017 13.1761 79.5017H4.24943V94.6476H0V96.4194H13.832C18.053 96.4194 21.4183 97.5053 23.928 99.6772C26.4377 101.849 27.6926 105.212 27.6926 109.765C27.6926 114.737 26.4377 118.252 23.928 120.31C21.4183 122.367 17.8343 123.396 13.1761 123.396H4.24943V138.542H0V140.314H13.832C18.053 140.314 21.4183 141.4 23.928 143.572C26.4377 145.744 27.6926 149.106 27.6926 153.659C27.6926 158.632 26.4377 162.147 23.928 164.204C21.4183 166.262 17.8343 167.291 13.1761 167.291H4.24943V182.437H0V189.086H13.832C18.053 189.086 21.4183 190.172 23.928 192.343C26.4377 194.515 27.6926 197.878 27.6926 202.431C27.6926 207.404 26.4377 210.919 23.928 212.976C21.4183 215.034 17.8343 216.062 13.1761 216.062H4.24943V231.208H34.2236V189.086H42.9221V205.146H59.3495V190.819H46.8483V163.633H42.9221V182.437H34.2236V140.314H42.9221V156.374H46.8483V119.738H42.9221V138.542H34.2236V96.4194H42.9221V112.48H46.8483V75.8438H42.9221V94.6476H34.2236V52.5248H42.9221V68.5852H46.8483V31.9493H42.9221V50.7531H34.2236V8.63031H42.9221V24.6907H46.8483V6.5537Z" fill="white" fill-opacity="0.8"/>
<path d="M68.0765 190.819V231.208H76.6894V190.819H68.0765Z" fill="white" fill-opacity="0.8"/>
<path d="M102.871 190.819C103.675 191.248 104.416 191.756 105.095 192.343C107.605 194.515 108.86 197.878 108.86 202.431C108.86 207.404 107.605 210.919 105.095 212.976C102.585 215.034 99.0013 216.062 94.3431 216.062H85.4164V231.208H115.391V190.819H102.871Z" fill="white" fill-opacity="0.8"/>
<path d="M124.089 190.819V205.146H140.516V190.819H124.089Z" fill="white" fill-opacity="0.8"/>
<path d="M149.243 190.819V231.208H157.856V190.819H149.243Z" fill="white" fill-opacity="0.8"/>
<path d="M140.516 231.208V212.405H124.089V231.208H140.516Z" fill="white" fill-opacity="0.8"/>
<path d="M59.3495 231.208V212.405H42.9221V231.208H59.3495Z" fill="white" fill-opacity="0.8"/>
<path d="M328.917 46.3331H349.385V31.7821C349.138 32.0463 348.875 32.2925 348.596 32.5208C346.086 34.5784 342.502 35.6072 337.844 35.6072H328.917V46.3331Z" fill="white" fill-opacity="0.8"/>
<path fill-rule="evenodd" clip-rule="evenodd" d="M320.19 46.3331V8.63031H338.5C342.721 8.63031 346.086 9.71624 348.596 11.8881C348.875 12.1291 349.138 12.3847 349.385 12.655V6.85852H190.435V231.208H196.558V189.086H205.256V205.146H221.683V189.086H230.41V231.208H236.98V137.018H239.023V98.0006H236.98V46.3331H239.023V8.63031H257.333C261.554 8.63031 264.919 9.71624 267.429 11.8881C269.939 14.06 271.194 17.4225 271.194 21.9758C271.194 26.9483 269.939 30.4633 267.429 32.5208C264.919 34.5784 261.335 35.6072 256.677 35.6072H247.75V46.3331H277.725V8.63031H286.423V24.6907H302.85V8.63031H311.578V46.3331H320.19ZM221.683 182.437V163.633H205.256V182.437H196.558V140.314H205.256V156.374H221.683V140.314H230.41V182.437H221.683ZM221.683 119.738V138.542H230.41V96.4194H221.683V112.48H205.256V96.4194H196.558V138.542H205.256V119.738H221.683ZM221.683 94.6476V75.8438H205.256V94.6476H196.558V52.5248H205.256V68.5852H221.683V52.5248H230.41V94.6476H221.683ZM221.683 31.9493V50.7531H230.41V8.63031H221.683V24.6907H205.256V8.63031H196.558V50.7531H205.256V31.9493H221.683Z" fill="white" fill-opacity="0.8"/>
<path d="M302.85 46.3331V31.9493H286.423V46.3331H302.85Z" fill="white" fill-opacity="0.8"/>
<path d="M264.909 98.0006C265.828 98.4596 266.668 99.0184 267.429 99.6772C269.939 101.849 271.194 105.212 271.194 109.765C271.194 114.737 269.939 118.252 267.429 120.31C264.919 122.367 261.335 123.396 256.677 123.396H247.75V137.018H277.725V98.0006H264.909Z" fill="white" fill-opacity="0.8"/>
<path d="M286.423 98.0006V112.48H302.85V98.0006H286.423Z" fill="white" fill-opacity="0.8"/>
<path d="M311.578 98.0006V137.018H320.19V98.0006H311.578Z" fill="white" fill-opacity="0.8"/>
<path d="M335.391 103.735V116.138H328.917V103.735H335.391Z" fill="white" fill-opacity="0.8"/>
<path d="M335.391 123.396V137.018H328.917V123.396H335.391Z" fill="white" fill-opacity="0.8"/>
<path d="M302.85 137.018V119.738H286.423V137.018H302.85Z" fill="white" fill-opacity="0.8"/>
<path d="M221.683 231.208V212.405H205.256V231.208H221.683Z" fill="white" fill-opacity="0.8"/>
<path d="M465.184 198.715C464.222 198.735 463.243 198.745 462.247 198.745C457.372 198.745 452.875 198.422 448.757 197.777V205.146H465.184V198.715Z" fill="white" fill-opacity="0.8"/>
<path d="M473.912 198.22V231.208H465.184V212.405H448.757V231.208H440.059V195.758C432.866 193.458 427.232 189.831 423.156 184.875C419.768 180.735 417.289 174.873 415.719 167.291H410.084V182.437H401.357V161.861H392.745V182.437H384.017V163.633H370.088C370.388 179.952 374.857 193.789 383.495 205.146H384.017V189.086H392.745V215.005C393.532 215.693 394.34 216.37 395.169 217.034C397.145 218.606 399.208 220.085 401.357 221.471V189.086H419.667C423.888 189.086 427.253 190.172 429.763 192.343C432.273 194.515 433.528 197.878 433.528 202.431C433.528 207.404 432.273 210.919 429.763 212.976C427.253 215.034 423.669 216.062 419.011 216.062H410.084V226.36C424.757 233.453 442.753 237 464.072 237C487.467 237 506.518 232.477 521.226 223.432V189.086H529.924V205.146H541.253C543.169 202.581 544.869 199.921 546.352 197.165V189.086H549.98C550.771 186.921 551.444 184.705 552 182.437H546.352V163.633H529.924V182.437H521.226V140.314H529.924V156.374H546.352V140.314H549.485C549.242 139.716 548.99 139.126 548.727 138.542H546.352V133.913C543.21 128.502 539.095 123.777 534.009 119.738H529.924V138.542H521.226V111.978C519.168 111.005 516.989 110.072 514.688 109.179C514.692 109.372 514.695 109.567 514.695 109.765C514.695 114.737 513.44 118.252 510.93 120.31C508.42 122.367 504.836 123.396 500.178 123.396H491.251V138.542H482.524V100.199L473.912 98.126V138.542H465.184V119.738H448.757V136.851L465.184 140.544V140.314H473.912V142.546C476.994 143.305 479.865 144.089 482.524 144.9V140.314H500.834C505.055 140.314 508.42 141.4 510.93 143.572C513.44 145.744 514.695 149.106 514.695 153.659C514.695 158.632 513.44 162.147 510.93 164.204C510.224 164.783 509.433 165.281 508.557 165.697C508.713 166.766 508.791 167.875 508.791 169.024C508.791 177.498 505.88 184.185 500.058 189.086H500.834C505.055 189.086 508.42 190.172 510.93 192.343C513.44 194.515 514.695 197.878 514.695 202.431C514.695 207.404 513.44 210.919 510.93 212.976C508.42 215.034 504.836 216.062 500.178 216.062H491.251V231.208H482.524V196.927C479.875 197.488 477.004 197.919 473.912 198.22Z" fill="white" fill-opacity="0.8"/>
<path d="M440.059 134.858V96.4194H448.757V112.48H465.184V96.4194H466.819L456.923 94.0379C454.003 93.3412 451.281 92.662 448.757 92.0003V94.6476H440.059V89.5506C434.359 87.8071 430.246 86.2039 427.719 84.7408C425.054 83.253 422.889 81.4787 421.225 79.418C420.516 79.4738 419.778 79.5017 419.011 79.5017H410.084V94.6476H401.357V52.5248H419.667C420.236 52.5248 420.789 52.5446 421.326 52.584C423.009 50.2327 425.191 48.1491 427.871 46.3331C431.362 43.9686 435.424 42.1773 440.059 40.9591V8.63031H448.757V24.6907H465.184V8.63031H473.912V40.9273C477.002 41.6971 479.873 42.6995 482.524 43.9346V8.63031H500.834C501.725 8.63031 502.577 8.67858 503.391 8.77527C490.54 2.92509 476.065 0 459.965 0C441.365 0 425.723 2.87677 413.04 8.63031H419.667C423.888 8.63031 427.253 9.71624 429.763 11.8881C432.273 14.06 433.528 17.4225 433.528 21.9758C433.528 26.9483 432.273 30.4633 429.763 32.5208C427.253 34.5784 423.669 35.6072 419.011 35.6072H410.084V50.7531H401.357V15.3323C399.342 16.775 397.431 18.3196 395.625 19.9659C394.631 20.872 393.671 21.7939 392.745 22.7315V50.7531H384.017V33.5297C377.408 43.7311 373.98 55.4162 373.736 68.5852H384.017V52.5248H392.745V94.6476H384.017V75.8438H373.901C374.686 88.1401 378.058 98.4355 384.017 106.73V96.4194H392.745V115.999C393.905 116.95 395.119 117.86 396.386 118.729C397.849 119.745 399.506 120.75 401.357 121.742V96.4194H419.667C423.888 96.4194 427.253 97.5053 429.763 99.6772C432.273 101.849 433.528 105.212 433.528 109.765C433.528 114.737 432.273 118.252 429.763 120.31C427.253 122.367 423.669 123.396 419.011 123.396H410.084V125.761C417.961 128.928 427.952 131.96 440.059 134.858Z" fill="white" fill-opacity="0.8"/>
<path d="M512.434 13.5351C513.941 15.6336 514.695 18.4472 514.695 21.9758C514.695 26.9483 513.44 30.4633 510.93 32.5208C508.42 34.5784 504.836 35.6072 500.178 35.6072H491.251V49.649C492.247 50.5529 493.172 51.5115 494.026 52.5248H500.834C505.055 52.5248 508.42 53.6108 510.93 55.7826C513.44 57.9545 514.695 61.3171 514.695 65.8704C514.695 68.9659 514.208 71.4965 513.236 73.4624H521.226V52.5248H529.924V68.5852H546.352V68.222C545.113 53.9441 540.816 41.8532 533.459 31.9493H529.924V50.7531H521.226V19.5631C520.937 19.34 520.645 19.1186 520.351 18.899C517.795 16.9622 515.155 15.1742 512.434 13.5351Z" fill="white" fill-opacity="0.8"/>
<path d="M465.184 39.4298C462.51 39.1548 459.705 39.0174 456.771 39.0174C453.969 39.0174 451.297 39.1489 448.757 39.412V31.9493H465.184V39.4298Z" fill="white" fill-opacity="0.8"/>
<path d="M417.072 66.7563C417.072 64.2983 417.357 61.9931 417.926 59.8406H410.084V72.2431H417.699C417.281 70.5339 417.072 68.705 417.072 66.7563Z" fill="white" fill-opacity="0.8"/>
<path d="M498.56 59.8406C500.144 63.4499 501.137 67.5159 501.537 72.0386C502.635 71.8039 503.551 71.3671 504.285 70.7285C505.426 69.7188 505.996 68.1185 505.996 65.9275C505.996 63.7366 505.416 62.1744 504.256 61.2409C503.116 60.3074 501.509 59.8406 499.437 59.8406H498.56Z" fill="white" fill-opacity="0.8"/>
<path d="M497.194 103.735H491.251V116.138H499.437C501.509 116.138 503.125 115.633 504.285 114.623C505.426 113.613 505.996 112.013 505.996 109.822C505.996 108.121 505.647 106.799 504.948 105.856C502.472 105.113 499.887 104.406 497.194 103.735Z" fill="white" fill-opacity="0.8"/>
<path d="M499.056 151.802C501.606 153.399 503.655 155.255 505.203 157.369C505.732 156.425 505.996 155.208 505.996 153.717C505.996 151.526 505.416 149.963 504.256 149.03C503.116 148.096 501.509 147.63 499.437 147.63H491.251V147.958C494.272 149.188 496.873 150.469 499.056 151.802Z" fill="white" fill-opacity="0.8"/>
<path d="M535.004 212.405H529.924V217.129L530.219 216.877L530.39 216.729C532.012 215.324 533.55 213.883 535.004 212.405Z" fill="white" fill-opacity="0.8"/>
<path d="M18.9941 202.488C18.9941 204.679 18.4237 206.28 17.2829 207.289C16.1231 208.299 14.507 208.804 12.4346 208.804H4.24943V196.401H12.4346C14.507 196.401 16.1136 196.868 17.2544 197.802C18.4142 198.735 18.9941 200.297 18.9941 202.488Z" fill="white" fill-opacity="0.8"/>
<path d="M100.161 202.488C100.161 204.679 99.5907 206.28 98.4499 207.289C97.2901 208.299 95.674 208.804 93.6016 208.804H85.4164V196.401H93.6016C95.674 196.401 97.2806 196.868 98.4214 197.802C99.5812 198.735 100.161 200.297 100.161 202.488Z" fill="white" fill-opacity="0.8"/>
<path d="M424.829 202.488C424.829 204.679 424.259 206.28 423.118 207.289C421.958 208.299 420.342 208.804 418.27 208.804H410.084V196.401H418.27C420.342 196.401 421.949 196.868 423.089 197.802C424.249 198.735 424.829 200.297 424.829 202.488Z" fill="white" fill-opacity="0.8"/>
<path d="M505.996 202.488C505.996 204.679 505.426 206.28 504.285 207.289C503.125 208.299 501.509 208.804 499.437 208.804H491.251V196.401H499.437C501.509 196.401 503.116 196.868 504.256 197.802C505.416 198.735 505.996 200.297 505.996 202.488Z" fill="white" fill-opacity="0.8"/>
<path d="M17.2829 158.518C18.4237 157.508 18.9941 155.908 18.9941 153.717C18.9941 151.526 18.4142 149.963 17.2544 149.03C16.1136 148.096 14.507 147.63 12.4346 147.63H4.24943V160.032H12.4346C14.507 160.032 16.1231 159.527 17.2829 158.518Z" fill="white" fill-opacity="0.8"/>
<path d="M18.9941 109.822C18.9941 112.013 18.4237 113.613 17.2829 114.623C16.1231 115.633 14.507 116.138 12.4346 116.138H4.24943V103.735H12.4346C14.507 103.735 16.1136 104.202 17.2544 105.135C18.4142 106.069 18.9941 107.631 18.9941 109.822Z" fill="white" fill-opacity="0.8"/>
<path d="M262.495 109.822C262.495 112.013 261.925 113.613 260.784 114.623C259.624 115.633 258.008 116.138 255.936 116.138H247.75V103.735H255.936C258.008 103.735 259.615 104.202 260.755 105.135C261.915 106.069 262.495 107.631 262.495 109.822Z" fill="white" fill-opacity="0.8"/>
<path d="M424.829 109.822C424.829 112.013 424.259 113.613 423.118 114.623C421.958 115.633 420.342 116.138 418.27 116.138H410.084V103.735H418.27C420.342 103.735 421.949 104.202 423.089 105.135C424.249 106.069 424.829 107.631 424.829 109.822Z" fill="white" fill-opacity="0.8"/>
<path d="M17.2829 70.7285C18.4237 69.7188 18.9941 68.1185 18.9941 65.9275C18.9941 63.7366 18.4142 62.1744 17.2544 61.2409C16.1136 60.3074 14.507 59.8406 12.4346 59.8406H4.24943V72.2431H12.4346C14.507 72.2431 16.1231 71.7382 17.2829 70.7285Z" fill="white" fill-opacity="0.8"/>
<path d="M18.9941 22.033C18.9941 24.2239 18.4237 25.8242 17.2829 26.834C16.1231 27.8437 14.507 28.3486 12.4346 28.3486H4.24943V15.9461H12.4346C14.507 15.9461 16.1136 16.4128 17.2544 17.3463C18.4142 18.2799 18.9941 19.8421 18.9941 22.033Z" fill="white" fill-opacity="0.8"/>
<path d="M262.495 22.033C262.495 24.2239 261.925 25.8242 260.784 26.834C259.624 27.8437 258.008 28.3486 255.936 28.3486H247.75V15.9461H255.936C258.008 15.9461 259.615 16.4128 260.755 17.3463C261.915 18.2799 262.495 19.8421 262.495 22.033Z" fill="white" fill-opacity="0.8"/>
<path d="M343.662 22.033C343.662 24.2239 343.092 25.8242 341.951 26.834C340.791 27.8437 339.175 28.3486 337.103 28.3486H328.917V15.9461H337.103C339.175 15.9461 340.782 16.4128 341.922 17.3463C343.082 18.2799 343.662 19.8421 343.662 22.033Z" fill="white" fill-opacity="0.8"/>
<path d="M424.829 22.033C424.829 24.2239 424.259 25.8242 423.118 26.834C421.958 27.8437 420.342 28.3486 418.27 28.3486H410.084V15.9461H418.27C420.342 15.9461 421.949 16.4128 423.089 17.3463C424.249 18.2799 424.829 19.8421 424.829 22.033Z" fill="white" fill-opacity="0.8"/>
<path d="M505.996 22.033C505.996 24.2239 505.426 25.8242 504.285 26.834C503.125 27.8437 501.509 28.3486 499.437 28.3486H491.251V15.9461H499.437C501.509 15.9461 503.116 16.4128 504.256 17.3463C505.416 18.2799 505.996 19.8421 505.996 22.033Z" fill="white" fill-opacity="0.8"/>
</svg>
